<svg width="1200" height="720" viewBox="0 0 1200 720" fill="none" xmlns="http://www.w3.org/2000/svg">
  <rect width="1200" height="720" rx="28" fill="#0B1220"/>
  <rect x="420" y="60" width="360" height="60" rx="16" fill="#0F172A" stroke="#1E293B" stroke-width="2"/>
  <rect x="60" y="60" width="300" height="600" rx="24" fill="#0F172A" stroke="#1E293B" stroke-width="2"/>
  <rect x="420" y="140" width="360" height="360" rx="24" fill="#0F172A" stroke="#1E293B" stroke-width="2"/>
  <rect x="420" y="520" width="360" height="140" rx="18" fill="#0F172A" stroke="#1E293B" stroke-width="2"/>
  <rect x="820" y="60" width="320" height="300" rx="20" fill="#0F172A" stroke="#1E293B" stroke-width="2"/>
  <rect x="820" y="380" width="320" height="280" rx="20" fill="#0F172A" stroke="#1E293B" stroke-width="2"/>
  <rect x="90" y="90" width="240" height="40" rx="12" fill="#1E293B"/>
  <rect x="90" y="150" width="220" height="16" rx="8" fill="#1E293B"/>
  <rect x="90" y="180" width="200" height="16" rx="8" fill="#1E293B"/>
  <rect x="450" y="170" width="140" height="140" rx="12" fill="#111827"/>
  <rect x="610" y="170" width="140" height="140" rx="12" fill="#1E293B"/>
  <rect x="450" y="330" width="140" height="140" rx="12" fill="#1E293B"/>
  <rect x="610" y="330" width="140" height="140" rx="12" fill="#111827"/>
  <rect x="840" y="400" width="260" height="200" rx="16" fill="#111827"/>
  <circle cx="450" cy="90" r="18" fill="#10B981"/>
  <circle cx="540" cy="90" r="18" fill="#EF4444"/>
  <circle cx="630" cy="90" r="18" fill="#22D3EE"/>
</svg>
