<svg width="1200" height="720" viewBox="0 0 1200 720" fill="none" xmlns="http://www.w3.org/2000/svg">
  <rect width="1200" height="720" rx="28" fill="#0B1220"/>
  <rect x="40" y="40" width="1120" height="100" rx="20" fill="#0F172A" stroke="#1E293B" stroke-width="2"/>
  <rect x="40" y="170" width="320" height="480" rx="20" fill="#0F172A" stroke="#1E293B" stroke-width="2"/>
  <rect x="380" y="170" width="780" height="220" rx="20" fill="#0F172A" stroke="#1E293B" stroke-width="2"/>
  <rect x="380" y="410" width="380" height="240" rx="20" fill="#0F172A" stroke="#1E293B" stroke-width="2"/>
  <rect x="780" y="410" width="380" height="240" rx="20" fill="#0F172A" stroke="#1E293B" stroke-width="2"/>
  <rect x="70" y="70" width="180" height="40" rx="12" fill="#10B981"/>
  <rect x="270" y="70" width="140" height="40" rx="12" fill="#1E293B"/>
  <rect x="420" y="70" width="140" height="40" rx="12" fill="#1E293B"/>
  <rect x="70" y="200" width="260" height="28" rx="12" fill="#1E293B"/>
  <rect x="70" y="240" width="200" height="16" rx="8" fill="#1E293B"/>
  <rect x="70" y="270" width="200" height="16" rx="8" fill="#1E293B"/>
  <rect x="70" y="310" width="260" height="28" rx="12" fill="#1E293B"/>
  <rect x="70" y="350" width="200" height="16" rx="8" fill="#1E293B"/>
  <rect x="70" y="380" width="200" height="16" rx="8" fill="#1E293B"/>
  <rect x="420" y="200" width="700" height="32" rx="12" fill="#1E293B"/>
  <rect x="420" y="250" width="540" height="18" rx="9" fill="#1E293B"/>
  <rect x="420" y="278" width="380" height="18" rx="9" fill="#1E293B"/>
  <rect x="420" y="410" width="320" height="24" rx="12" fill="#1E293B"/>
  <rect x="420" y="450" width="320" height="150" rx="12" fill="#111827"/>
  <rect x="820" y="450" width="320" height="150" rx="12" fill="#111827"/>
  <circle cx="1100" cy="90" r="24" fill="#10B981"/>
  <circle cx="1040" cy="90" r="24" fill="#22D3EE"/>
  <circle cx="980" cy="90" r="24" fill="#FACC15"/>
</svg>
